<svg xmlns="http://www.w3.org/2000/svg" viewBox="0 0 500.92 301"><defs><style>.cls-1{fill:#81d4fa;}.cls-2{fill:#4fc3f7;}.cls-3,.cls-4{fill:none;stroke-miterlimit:10;}.cls-3{stroke:#81d4fa;}.cls-4{stroke:#4fc3f7;}</style></defs><title>Asset 1</title><g id="Layer_2" data-name="Layer 2"><g id="Layer_1-2" data-name="Layer 1"><polygon class="cls-1" points="300.5 0.5 100.5 300.5 100.5 125.5 0.5 125.5 0.5 0.5 300.5 0.5"/><polygon class="cls-2" points="300.5 0.5 500.5 300.5 350.5 300.5 300.5 225.5 250.5 300.5 100.5 300.5 300.5 0.5"/><line class="cls-3" x1="0.5" y1="0.5" x2="300.5" y2="0.5"/><line class="cls-3" x1="100.5" y1="300.5" x2="100.5" y2="125.5"/><line class="cls-3" x1="0.5" y1="0.5" x2="0.5" y2="125.5"/><line class="cls-3" x1="0.5" y1="125.5" x2="100.5" y2="125.5"/><line class="cls-4" x1="300.5" y1="0.5" x2="500.5" y2="300.5"/><line class="cls-4" x1="300.5" y1="225.5" x2="250.5" y2="300.5"/><line class="cls-4" x1="300.5" y1="225.5" x2="350.5" y2="300.5"/><line class="cls-4" x1="250.5" y1="300.5" x2="100.5" y2="300.5"/><line class="cls-4" x1="500.5" y1="300.5" x2="350.5" y2="300.5"/><line class="cls-4" x1="300.5" y1="0.5" x2="100.5" y2="300.5"/></g></g></svg>