<svg xmlns="http://www.w3.org/2000/svg" viewBox="0 0 525.5 325.5"><defs><style>.cls-1,.cls-4,.cls-5{fill:none;stroke-miterlimit:10;}.cls-1{stroke:#fff;stroke-width:25px;}.cls-2{fill:#4fc3f7;}.cls-3{fill:#81d4fa;}.cls-4{stroke:#81d4fa;}.cls-5{stroke:#4fc3f7;}</style></defs><title>TA_Logo_Outlined</title><g id="Layer_2" data-name="Layer 2"><g id="Layer_1-2" data-name="Layer 1"><g id="Layer_2-2" data-name="Layer 2"><path d="M512.93,312.57a.29.29,0,0,1,.07.18.2.2,0,0,1,0,.13.1.1,0,0,1,0,.05.22.22,0,0,1-.17.07.26.26,0,0,1-.21-.11l-.26-.39h.47A.29.29,0,0,1,512.93,312.57Z"/><path d="M512.92,312.93a.1.1,0,0,0,0-.05A.1.1,0,0,1,512.92,312.93Z"/><path d="M313,12.65,512.93,312.57a.29.29,0,0,0-.18-.07h-.47L312.75,13.21l.18-.28,0,0A.29.29,0,0,0,313,12.65Z"/><path d="M512.75,313h-150a.23.23,0,0,0,.14,0,.26.26,0,0,0,.07-.35l-.07-.11H512.28l.26.39A.26.26,0,0,0,512.75,313Z"/><path d="M363,312.61a.26.26,0,0,1-.07.35.23.23,0,0,1-.14,0,.2.2,0,0,1-.13,0,.13.13,0,0,1-.07-.06l0,0a.3.3,0,0,1,0-.1.25.25,0,0,1,.25-.25h.14Z"/><path d="M362.89,312.5h-.14a.25.25,0,0,0-.25.25.3.3,0,0,0,0,.1l-49.77-74.64.21-.32a.27.27,0,0,0,0-.26Z"/><path d="M362.55,312.9a.13.13,0,0,0,.07.06A.13.13,0,0,1,362.55,312.9Z"/><path d="M312.6,13l-.06-.09a.27.27,0,0,1,0-.26v0a.32.32,0,0,1,.09-.08.23.23,0,0,1,.11,0h.1l.05,0h0a.12.12,0,0,1,.05,0l0,0v0a.29.29,0,0,1,0,.24l0,0a.29.29,0,0,1-.18.07h-.14Z"/><path d="M313,237.63a.27.27,0,0,1,0,.26l-.21.32-.21-.32a.27.27,0,0,1,0-.26.32.32,0,0,1,.08-.09h0a.23.23,0,0,1,.11,0h0a.23.23,0,0,1,.11,0,.19.19,0,0,1,.1.08Z"/><path d="M313,12.63v0Z"/><path d="M313,12.6a.12.12,0,0,0-.05,0A.12.12,0,0,1,313,12.6Z"/><path d="M312.93,12.93l-.18.28-.14-.21h.14A.29.29,0,0,0,312.93,12.93Z"/><path d="M312.86,237.53a.23.23,0,0,0-.11,0A.2.2,0,0,1,312.86,237.53Z"/><path d="M312.84,12.52h0Z"/><polygon points="312.61 13 312.75 13.21 113.22 312.5 113 312.5 113 312.38 312.58 13 312.61 13"/><path d="M312.54,237.89l.21.32L263,312.85a.3.3,0,0,0,0-.1.25.25,0,0,0-.25-.25h-.14l49.92-74.87A.27.27,0,0,0,312.54,237.89Z"/><path d="M312.74,12.5a.23.23,0,0,0-.11,0Z"/><path d="M12.75,12.5h300l-.11,0a.32.32,0,0,0-.09.08v0l-.25.37H13v-.25A.25.25,0,0,0,12.75,12.5Z"/><path d="M312.74,237.5a.23.23,0,0,0-.11,0Z"/><polygon points="312.6 12.98 312.61 13 312.58 13 312.6 12.98"/><path d="M312.54,12.89l.06.09,0,0h-.3l.25-.37A.27.27,0,0,0,312.54,12.89Z"/><polygon points="312.58 13 113 312.38 113 311.92 312.28 13 312.58 13"/><path d="M263,312.75a.3.3,0,0,1,0,.1l0,0a.13.13,0,0,1-.07.06.2.2,0,0,1-.13,0,.23.23,0,0,1-.14,0,.26.26,0,0,1-.07-.35l.07-.11h.14A.25.25,0,0,1,263,312.75Z"/><path d="M262.88,313a.13.13,0,0,0,.07-.06A.13.13,0,0,1,262.88,313Z"/><path d="M262.75,313h-150a.23.23,0,0,0,.17-.07l0,0h0l0,0,.24-.35H262.61l-.07.11a.26.26,0,0,0,.07.35A.23.23,0,0,0,262.75,313Z"/><path d="M113.22,312.5l-.24.35a.3.3,0,0,0,0-.1v-.25Z"/><path d="M112.92,312.5H113v.25a.3.3,0,0,1,0,.1l0,0h0l0,0a.23.23,0,0,1-.17.07.23.23,0,0,1-.14,0l0,0a.1.1,0,0,1,0-.05.22.22,0,0,1,0-.13.23.23,0,0,1,0-.14l0,0a.29.29,0,0,1,.18-.07Z"/><polygon points="113 312.38 113 312.5 112.92 312.5 113 312.38"/><path d="M113,311.92v.46l-.08.12h-.17a.29.29,0,0,0-.18.07Z"/><path d="M113,137.75V311.92l-.43.65,0,0a.23.23,0,0,0,0,.14V138h.25A.25.25,0,0,0,113,137.75Z"/><path d="M112.92,312.93l0,0Z"/><path d="M112.75,137.5a.25.25,0,0,1,0,.5h-.25v-.25A.25.25,0,0,1,112.75,137.5Z"/><path d="M13,137.5h99.75a.25.25,0,0,0-.25.25V138H12.75a.25.25,0,0,0,.25-.25Z"/><path d="M112.54,312.88a.1.1,0,0,0,0,.05A.1.1,0,0,1,112.54,312.88Z"/><path d="M13,137.5v.25a.25.25,0,1,1-.25-.25Z"/><path d="M13,13V137.5h-.25a.25.25,0,0,0-.25.25v-125a.25.25,0,0,0,.25.25Z"/><path d="M13,12.75V13h-.25a.25.25,0,1,1,.25-.25Z"/><path class="cls-1" d="M312.9,12.55a.12.12,0,0,1,.05,0"/><line class="cls-1" x1="12.75" y1="12.5" x2="312.74" y2="12.5"/><path class="cls-1" d="M312.93,12.93a.29.29,0,0,1-.18.07h-300a.25.25,0,0,1-.25-.25"/><path class="cls-1" d="M113,312.9l0,0"/><path class="cls-1" d="M113,137.75v175a.3.3,0,0,1,0,.1"/><path class="cls-1" d="M112.5,312.75v-175a.25.25,0,0,1,.25-.25"/><path class="cls-1" d="M12.5,137.75v-125a.25.25,0,0,1,.5,0v125a.25.25,0,0,1-.25.25"/><path class="cls-1" d="M113,137.75a.25.25,0,0,1-.25.25h-100a.25.25,0,0,1,0-.5h100A.25.25,0,0,1,113,137.75Z"/><path class="cls-1" d="M513,312.88a.1.1,0,0,1,0,.05"/><polyline class="cls-1" points="312.97 12.63 312.98 12.65 512.93 312.57"/><path class="cls-1" d="M312.8,12.51h0"/><path class="cls-1" d="M312.63,12.53l.11,0"/><path class="cls-1" d="M512.75,313a.26.26,0,0,1-.21-.11l-.26-.39L312.75,13.21l-.14-.21v0l-.06-.09a.27.27,0,0,1,0-.26"/><path class="cls-1" d="M263,312.9a.13.13,0,0,1-.07.06"/><path class="cls-1" d="M313,237.63a.27.27,0,0,1,0,.26l-.21.32L263,312.85"/><path class="cls-1" d="M312.75,237.5a.2.2,0,0,1,.11,0"/><path class="cls-1" d="M312.63,237.53a.23.23,0,0,1,.11,0"/><path class="cls-1" d="M262.75,313a.23.23,0,0,1-.14,0,.26.26,0,0,1-.07-.35l.07-.11,49.92-74.87"/><path class="cls-1" d="M362.52,312.85l-49.77-74.64-.21-.32a.27.27,0,0,1,0-.26.32.32,0,0,1,.08-.09h0l.11,0h0a.23.23,0,0,1,.11,0,.19.19,0,0,1,.1.08v0l49.92,74.87.07.11a.26.26,0,0,1-.07.35.23.23,0,0,1-.14,0"/><path class="cls-1" d="M362.62,313a.13.13,0,0,1-.07-.06"/><path class="cls-1" d="M112.57,312.57a.29.29,0,0,1,.18-.07h150a.25.25,0,0,1,.25.25.3.3,0,0,1,0,.1l0,0a.13.13,0,0,1-.07.06.2.2,0,0,1-.13,0h-150"/><path class="cls-1" d="M112.58,312.93a.1.1,0,0,1,0-.05"/><path class="cls-1" d="M512.75,313h-150a.2.2,0,0,1-.13,0,.13.13,0,0,1-.07-.06l0,0a.3.3,0,0,1,0-.1.25.25,0,0,1,.25-.25h150a.24.24,0,0,1,.25.25.2.2,0,0,1,0,.13.1.1,0,0,1,0,.05A.22.22,0,0,1,512.75,313Z"/><polyline class="cls-1" points="312.75 12.75 312.6 12.98 312.58 13 113 312.38 112.92 312.5 112.75 312.75"/><path class="cls-1" d="M112.75,313a.23.23,0,0,1-.14,0l0,0a.1.1,0,0,1,0-.05.22.22,0,0,1,0-.13.23.23,0,0,1,0-.14l0,0,.43-.65L312.28,13l.25-.37v0a.32.32,0,0,1,.09-.08.23.23,0,0,1,.11,0h.1l.05,0h0a.12.12,0,0,1,.05,0l0,0v0a.29.29,0,0,1,0,.24l0,0-.18.28L113.22,312.5l-.24.35,0,0h0l0,0A.23.23,0,0,1,112.75,313Z"/></g><polygon class="cls-2" points="312.75 12.75 512.75 312.75 362.75 312.75 312.75 237.75 262.75 312.75 112.75 312.75 312.75 12.75"/><polygon class="cls-3" points="312.75 12.75 112.75 312.75 112.75 137.75 12.75 137.75 12.75 12.75 312.75 12.75"/><line class="cls-4" x1="12.75" y1="12.75" x2="312.75" y2="12.75"/><line class="cls-4" x1="112.75" y1="312.75" x2="112.75" y2="137.75"/><line class="cls-4" x1="12.75" y1="12.75" x2="12.75" y2="137.75"/><line class="cls-4" x1="12.75" y1="137.75" x2="112.75" y2="137.75"/><line class="cls-5" x1="312.75" y1="12.75" x2="512.75" y2="312.75"/><line class="cls-5" x1="312.75" y1="237.75" x2="262.75" y2="312.75"/><line class="cls-5" x1="312.75" y1="237.75" x2="362.75" y2="312.75"/><line class="cls-5" x1="262.75" y1="312.75" x2="112.75" y2="312.75"/><line class="cls-5" x1="512.75" y1="312.75" x2="362.75" y2="312.75"/><line class="cls-5" x1="312.75" y1="12.75" x2="112.75" y2="312.75"/></g></g></svg>